<svg width="268" height="118" viewBox="0 0 268 118" fill="none" xmlns="http://www.w3.org/2000/svg">
<path d="M94.6162 70.2235H98.9677L93.2772 64.3099C85.1321 55.8299 73.8628 51.0321 62.0355 51.0321H60.6967H57.7956H56.3451C44.6294 51.0321 33.3601 55.8299 25.1033 64.3099L19.4129 70.2235H23.7644C35.4801 70.2235 46.7494 65.4255 55.0061 56.9457L59.2462 52.5941C56.7914 67.5456 35.4801 91.2 35.4801 91.2H59.3577H83.2353C83.2353 91.2 62.1472 67.8803 59.4692 52.9288L63.3745 57.0573C71.5197 65.4255 82.7889 70.2235 94.6162 70.2235Z" fill="white"/>
<path d="M55.6756 42.329L59.1345 38.7586L62.5934 42.329C69.2881 49.3584 78.6606 53.2637 88.3679 53.2637H91.9384L87.2521 48.3542C80.5575 41.3249 71.185 37.4196 61.4776 37.4196H60.3618H57.9072H56.7914C47.0842 37.4196 37.8232 41.3249 31.017 48.3542L26.3307 53.3752H29.9012C39.6084 53.3752 48.9809 49.3584 55.6756 42.329Z" fill="white"/>
<path d="M56.3451 30.0555L59.1345 27.1545L61.924 30.0555C67.3913 35.746 74.9786 38.9817 82.9006 38.9817H85.8016L82.008 34.9649C76.5406 29.2744 68.9534 26.0387 61.0314 26.0387H60.1388H58.1304H57.2377C49.3157 26.0387 41.7285 29.2744 36.2611 34.9649L32.4675 38.9817H35.3685C43.2905 38.9817 50.8778 35.746 56.3451 30.0555Z" fill="white"/>
<path d="M147.335 43.95V75H144.185V50.205L133.115 75H130.82L119.75 50.295V75H116.6V43.95H119.93L131.945 70.86L143.96 43.95H147.335ZM174.731 50.43L160.151 86.565H156.866L161.636 74.865L151.556 50.43H155.021L163.391 71.4L171.491 50.43H174.731ZM200.891 75.315C198.821 75.315 196.991 74.955 195.401 74.235C193.841 73.515 192.611 72.51 191.711 71.22C190.811 69.93 190.331 68.49 190.271 66.9H193.601C193.751 68.43 194.426 69.78 195.626 70.95C196.826 72.09 198.581 72.66 200.891 72.66C203.021 72.66 204.701 72.12 205.931 71.04C207.191 69.93 207.821 68.535 207.821 66.855C207.821 65.505 207.476 64.425 206.786 63.615C206.096 62.775 205.241 62.16 204.221 61.77C203.201 61.35 201.791 60.9 199.991 60.42C197.891 59.85 196.226 59.295 194.996 58.755C193.766 58.215 192.716 57.375 191.846 56.235C190.976 55.095 190.541 53.55 190.541 51.6C190.541 49.98 190.961 48.54 191.801 47.28C192.641 45.99 193.826 44.985 195.356 44.265C196.886 43.545 198.641 43.185 200.621 43.185C203.531 43.185 205.871 43.905 207.641 45.345C209.441 46.755 210.476 48.585 210.746 50.835H207.326C207.116 49.545 206.411 48.405 205.211 47.415C204.011 46.395 202.391 45.885 200.351 45.885C198.461 45.885 196.886 46.395 195.626 47.415C194.366 48.405 193.736 49.77 193.736 51.51C193.736 52.83 194.081 53.895 194.771 54.705C195.461 55.515 196.316 56.13 197.336 56.55C198.386 56.97 199.796 57.42 201.566 57.9C203.606 58.47 205.256 59.04 206.516 59.61C207.776 60.15 208.841 60.99 209.711 62.13C210.581 63.27 211.016 64.8 211.016 66.72C211.016 68.19 210.626 69.585 209.846 70.905C209.066 72.225 207.911 73.29 206.381 74.1C204.851 74.91 203.021 75.315 200.891 75.315ZM218.678 45.795C218.048 45.795 217.508 45.57 217.058 45.12C216.608 44.67 216.383 44.115 216.383 43.455C216.383 42.795 216.608 42.255 217.058 41.835C217.508 41.385 218.048 41.16 218.678 41.16C219.308 41.16 219.848 41.385 220.298 41.835C220.748 42.255 220.973 42.795 220.973 43.455C220.973 44.115 220.748 44.67 220.298 45.12C219.848 45.57 219.308 45.795 218.678 45.795ZM220.253 50.43V75H217.103V50.43H220.253ZM231.481 53.085V68.34C231.481 69.84 231.766 70.875 232.336 71.445C232.906 72.015 233.911 72.3 235.351 72.3H238.231V75H234.856C232.636 75 230.986 74.49 229.906 73.47C228.826 72.42 228.286 70.71 228.286 68.34V53.085H224.866V50.43H228.286V44.265H231.481V50.43H238.231V53.085H231.481ZM265.656 61.455C265.656 62.535 265.626 63.36 265.566 63.93H245.181C245.271 65.79 245.721 67.38 246.531 68.7C247.341 70.02 248.406 71.025 249.726 71.715C251.046 72.375 252.486 72.705 254.046 72.705C256.086 72.705 257.796 72.21 259.176 71.22C260.586 70.23 261.516 68.895 261.966 67.215H265.296C264.696 69.615 263.406 71.58 261.426 73.11C259.476 74.61 257.016 75.36 254.046 75.36C251.736 75.36 249.666 74.85 247.836 73.83C246.006 72.78 244.566 71.31 243.516 69.42C242.496 67.5 241.986 65.265 241.986 62.715C241.986 60.165 242.496 57.93 243.516 56.01C244.536 54.09 245.961 52.62 247.791 51.6C249.621 50.58 251.706 50.07 254.046 50.07C256.386 50.07 258.426 50.58 260.166 51.6C261.936 52.62 263.286 54 264.216 55.74C265.176 57.45 265.656 59.355 265.656 61.455ZM262.461 61.365C262.491 59.535 262.116 57.975 261.336 56.685C260.586 55.395 259.551 54.42 258.231 53.76C256.911 53.1 255.471 52.77 253.911 52.77C251.571 52.77 249.576 53.52 247.926 55.02C246.276 56.52 245.361 58.635 245.181 61.365H262.461Z" fill="white"/>
</svg>
